<svg
  xmlns="http://www.w3.org/2000/svg"
  xmlns:xlink="http://www.w3.org/1999/xlink"
  width="191" height="236" font-family="Arial, Helvetica, sans-serif">
<rect stroke="#d3d3d3" fill="#ffffff" x="20" y="20" width="67" height="26"/>
<rect stroke="#d3d3d3" fill="#ffffff" x="15" y="25" width="10" height="5"/><rect stroke="#d3d3d3" fill="#ffffff" x="15" y="36" width="10" height="5"/><text font-family="Arial,Helvetica,sans-serif" font-size="12px" x="31" y="38">serviced</text>
<rect stroke="#d3d3d3" fill="#e2e2e2" x="117" y="20" width="63" height="26"/>
<text class="external-title" font-size="12px" x="123" y="38">postgres</text>
<rect stroke="#d3d3d3" fill="#e2e2e2" x="28" y="116" width="51" height="26"/>
<rect stroke="#d3d3d3" fill="#e2e2e2" x="23" y="121" width="10" height="5"/><rect stroke="#d3d3d3" fill="#e2e2e2" x="23" y="132" width="10" height="5"/><text class="external-title" font-size="12px" x="39" y="134">nginx</text>
<circle stroke="#d3d3d3" fill="#e2e2e2" cx="149" cy="128" r="40" />\n
<text font-family="Arial,Helvetica,sans-serif" font-size="12px" x="129" y="132">internet</text>
<rect stroke="#d3d3d3" fill="#e2e2e2" x="125" y="210" width="50" height="26"/>
<rect stroke="#d3d3d3" fill="#e2e2e2" x="120" y="215" width="10" height="5"/><rect stroke="#d3d3d3" fill="#e2e2e2" x="120" y="226" width="10" height="5"/><text class="external-title" font-size="12px" x="136" y="228">client</text>
<path stroke="black" d="M87,33 L117,33" />

<path stroke="black" d="M53,116 L53,46" />

<path stroke="black" d="M79,129 L109,129" />

<path stroke="black" d="M150,170 L150,210" />
</svg>