<svg
  xmlns="http://www.w3.org/2000/svg"
  xmlns:xlink="http://www.w3.org/1999/xlink"
  font-family="Arial,Helvetica,sans-serif" width="292" height="206">
<rect stroke="#d3d3d3" fill="#ffffff" x="130" y="20" width="67" height="26"/>
<rect stroke="#d3d3d3" fill="#ffffff" x="125" y="25" width="10" height="5"/><rect stroke="#d3d3d3" fill="#ffffff" x="125" y="36" width="10" height="5"/><text font-family="Arial,Helvetica,sans-serif" font-size="12px" x="141" y="38">serviced</text>
<path stroke="#d3d3d3" fill="#e2e2e2" d="M 227 18 L 227 42 C 227 54, 289 54, 289 42 L 289 18" />
<ellipse stroke="#d3d3d3" fill="#e2e2e2" cx="258" cy="18" rx="31" ry="6" />
<text class="external-title" font-size="12px" x="233" y="38">postgres</text>
<rect stroke="#d3d3d3" fill="#e2e2e2" x="138" y="86" width="51" height="26"/>
<rect stroke="#d3d3d3" fill="#e2e2e2" x="133" y="91" width="10" height="5"/><rect stroke="#d3d3d3" fill="#e2e2e2" x="133" y="102" width="10" height="5"/><text class="external-title" font-size="12px" x="149" y="104">nginx</text>
<circle stroke="#d3d3d3" fill="#e2e2e2" cx="57" cy="99" r="40" />\n
<text font-family="Arial,Helvetica,sans-serif" font-size="12px" x="36" y="102">internet</text>
<rect stroke="#d3d3d3" fill="#e2e2e2" x="32" y="179" width="50" height="26"/>
<rect stroke="#d3d3d3" fill="#e2e2e2" x="27" y="184" width="10" height="5"/><rect stroke="#d3d3d3" fill="#e2e2e2" x="27" y="195" width="10" height="5"/><text class="external-title" font-size="12px" x="43" y="197">client</text>
<path stroke="black" d="M197,33 L227,33" />

<path stroke="black" d="M163,86 L163,46" />

<path stroke="black" d="M138,99 L97,99" />

<path stroke="black" d="M57,139 L57,179" />
</svg>